<?xml version="1.0" encoding="UTF-8"?>
<svg version="1.1" xmlns="http://www.w3.org/2000/svg" width="512" height="512">
<path d="M0 0 C4.873387 2.30378294 7.48191114 5.25437099 10 10 C10.1015625 12.69140625 10.1015625 12.69140625 10 15 C10.75394043 14.98428955 11.50788086 14.9685791 12.28466797 14.95239258 C47.57205188 14.31583374 77.09710979 20.16505403 103.28808594 45.28076172 C122.80428262 64.8804561 132.50195201 91.07440985 132.49975586 118.48461914 C132.26722415 129.0824021 129.45668438 135.92455828 121.8125 143.5 C110.71605309 152.30379259 98.24235361 152.07012259 84.73779297 150.78466797 C57.66007814 147.58727704 32.42503797 133.12198526 15.44140625 111.85546875 C1.18944344 93.26630451 -4.73194782 72.01812573 -7 49 C-9.33058481 52.55561117 -11.66004485 56.11195596 -13.98852539 59.66894531 C-14.77859126 60.87552117 -15.56894882 62.08190609 -16.35961914 63.28808594 C-18.2419508 66.15980255 -20.12054582 69.03377827 -21.98974609 71.9140625 C-23.21354838 73.7927194 -24.44810246 75.66450316 -25.70166016 77.5234375 C-26.87782421 79.30049892 -27.95276661 81.14403357 -29 83 C-27.76477497 86.70567509 -26.39349305 87.46015056 -23.3125 89.8125 C-11.30638582 99.43607791 -1.01500261 110.55103838 8 123 C8.41701172 123.57266602 8.83402344 124.14533203 9.26367188 124.73535156 C38.52737515 165.43518225 50.99520868 217.45466124 43 267 C37.32273046 299.18064671 25.61283969 329.38717572 5 355 C4.36771484 355.80002441 3.73542969 356.60004883 3.08398438 357.42431641 C-2.36664836 364.23039112 -8.18479266 370.48941214 -14.375 376.625 C-15.24382812 377.5015625 -16.11265625 378.378125 -17.0078125 379.28125 C-23.02591302 385.28154549 -29.3313215 390.7369805 -36 396 C-36.7213916 396.57540527 -37.4427832 397.15081055 -38.18603516 397.74365234 C-85.43406659 435.18613849 -142.08911388 458.24783227 -202 465 C-202.83217041 465.09571289 -203.66434082 465.19142578 -204.52172852 465.29003906 C-250.4205411 469.84765761 -312.20618498 469.18913857 -350.3125 440.125 C-362.78108438 429.61547307 -371.6630889 416.40426613 -377 401 C-377.3196875 400.10023438 -377.639375 399.20046875 -377.96875 398.2734375 C-384.14037335 377.0727684 -380.72968944 353.31267561 -370.40625 334.12890625 C-367.84977322 329.6063255 -364.93691773 325.34391429 -362 321.0625 C-346.00212594 297.73007739 -339.66437255 272.3218396 -340.0625 244.1875 C-340.34920556 188.26844848 -320.92460823 138.35629108 -281.54150391 98.52490234 C-268.18633392 85.24847231 -252.71186187 74.60048421 -236 66 C-234.84886719 65.39800781 -233.69773438 64.79601562 -232.51171875 64.17578125 C-186.88913979 41.5928584 -133.01174 38.96568429 -84.90356445 54.85498047 C-75.20006806 58.19198005 -65.97946113 62.02005622 -57 67 C-56.78601563 66.35546875 -56.57203125 65.7109375 -56.3515625 65.046875 C-54.47086569 60.80715387 -51.93640686 57.10717739 -49.375 53.25 C-48.20087383 51.4641653 -47.02774436 49.67767501 -45.85546875 47.890625 C-44.92033447 46.4665332 -44.92033447 46.4665332 -43.96630859 45.01367188 C-39.83756165 38.68572895 -35.790934 32.30472035 -31.73388672 25.93066406 C-29.83107096 22.94823997 -27.91662924 19.97356183 -26 17 C-25.31244629 15.91847656 -24.62489258 14.83695313 -23.91650391 13.72265625 C-22.88468994 12.12744141 -22.88468994 12.12744141 -21.83203125 10.5 C-20.90934448 9.06140625 -20.90934448 9.06140625 -19.96801758 7.59375 C-14.35643173 0.19795691 -8.87186035 -0.89095062 0 0 Z " fill="#FEB357" transform="translate(380,23)"/>
<path d="M0 0 C3.77852016 1.78688638 7.2768886 3.81476706 10.796875 6.0625 C11.4983667 6.50650146 12.1998584 6.95050293 12.92260742 7.40795898 C26.17886325 15.89975252 38.34829732 25.90648426 49.9609375 36.51171875 C51.72267583 38.0960382 53.50276287 39.59390998 55.359375 41.0625 C58.35863614 43.66185966 60.82768373 46.45647 63.39453125 49.47265625 C65.04068011 51.35035132 66.74922616 53.08127698 68.546875 54.8125 C83.24225939 69.37783674 94.90046528 87.65217423 105.171875 105.5 C105.5632666 106.17820801 105.9546582 106.85641602 106.35791016 107.55517578 C122.07248228 135.13435029 132.80317451 166.35759433 137.5703125 197.7421875 C138.09284907 201.39823328 138.09284907 201.39823328 138.9609375 204.5078125 C139.75045302 208.11853016 140.08957842 210.80891745 138.27148438 214.15917969 C135.30781606 218.6145119 131.75910673 222.54484706 128.171875 226.5 C127.46546875 227.33015625 126.7590625 228.1603125 126.03125 229.015625 C115.55066507 241.14669575 103.91124976 252.76616138 91.171875 262.5 C89.88724143 263.51203228 88.6034533 264.52513823 87.3203125 265.5390625 C40.24628851 302.46404947 -15.54719389 324.35208516 -74.828125 331.5 C-75.89675781 331.63277344 -76.96539062 331.76554687 -78.06640625 331.90234375 C-87.93496984 332.92130435 -97.91989361 332.59050521 -107.828125 332.5 C-118.90261882 309.9449476 -122.89158616 286.49000161 -114.7265625 262.2265625 C-113.53954622 259.24753454 -112.24267611 256.37746293 -110.828125 253.5 C-110.38597656 252.60023438 -109.94382813 251.70046875 -109.48828125 250.7734375 C-106.82959843 245.66228549 -103.80850503 240.99388932 -100.453125 236.3125 C-93.08819524 225.90849276 -88.04408272 214.80074946 -83.953125 202.75 C-83.66679199 201.91146484 -83.38045898 201.07292969 -83.08544922 200.20898438 C-78.79337369 186.96368575 -78.63211973 174.21272925 -78.5949707 160.42407227 C-78.43170367 129.05550585 -75.6871644 95.96268861 -58.828125 68.5 C-57.8690625 69.551875 -57.8690625 69.551875 -56.890625 70.625 C-50.54570754 76.96991746 -43.05546145 81.72772634 -33.9453125 81.82226562 C-33.24664062 81.81904297 -32.54796875 81.81582031 -31.828125 81.8125 C-31.12945312 81.82861328 -30.43078125 81.84472656 -29.7109375 81.86132812 C-25.253193 81.86553354 -22.30562439 81.35299572 -18.828125 78.5 C-17.57974119 75.09471004 -17.57974119 75.09471004 -17.828125 71.5 C-19.29665832 69.1238395 -19.29665832 69.1238395 -21.828125 67.5 C-25.33143213 67.20378903 -25.33143213 67.20378903 -29.140625 67.5625 C-38.53081227 67.88331076 -38.53081227 67.88331076 -42.45703125 64.32421875 C-45.36734017 60.45209834 -47.69543475 56.22067316 -48.828125 51.5 C-47.73727012 47.04328367 -44.92568677 43.48325417 -42.265625 39.8125 C-41.82307373 39.19745605 -41.38052246 38.58241211 -40.92456055 37.94873047 C-37.51930079 33.2890291 -33.85275839 28.96028685 -29.9140625 24.73828125 C-27.96368117 22.64545634 -26.11181133 20.49701459 -24.265625 18.3125 C-20.76235139 14.30301942 -16.90873037 10.90660951 -12.828125 7.5 C-11.99667969 6.74589844 -11.16523438 5.99179688 -10.30859375 5.21484375 C-9.01888672 4.08755859 -9.01888672 4.08755859 -7.703125 2.9375 C-6.91679687 2.23496094 -6.13046875 1.53242188 -5.3203125 0.80859375 C-2.828125 -0.5 -2.828125 -0.5 0 0 Z " fill="#FECD70" transform="translate(252.828125,156.5)"/>
<path d="M0 0 C4.873387 2.30378294 7.48191114 5.25437099 10 10 C10.1015625 12.69140625 10.1015625 12.69140625 10 15 C10.75394043 14.98428955 11.50788086 14.9685791 12.28466797 14.95239258 C47.57205188 14.31583374 77.09710979 20.16505403 103.28808594 45.28076172 C122.80428262 64.8804561 132.50195201 91.07440985 132.49975586 118.48461914 C132.26722415 129.0824021 129.45668438 135.92455828 121.8125 143.5 C110.71605309 152.30379259 98.24235361 152.07012259 84.73779297 150.78466797 C57.66007814 147.58727704 32.42503797 133.12198526 15.44140625 111.85546875 C1.18944344 93.26630451 -4.73194782 72.01812573 -7 49 C-9.33058481 52.55561117 -11.66004485 56.11195596 -13.98852539 59.66894531 C-14.77859126 60.87552117 -15.56894882 62.08190609 -16.35961914 63.28808594 C-18.2419508 66.15980255 -20.12054582 69.03377827 -21.98974609 71.9140625 C-23.21354838 73.7927194 -24.44810246 75.66450316 -25.70166016 77.5234375 C-26.87782421 79.30049892 -27.95276661 81.14403357 -29 83 C-27.76477497 86.70567509 -26.39349305 87.46015056 -23.3125 89.8125 C-11.30638582 99.43607791 -1.01500261 110.55103838 8 123 C8.41701172 123.57266602 8.83402344 124.14533203 9.26367188 124.73535156 C38.52737515 165.43518225 50.99520868 217.45466124 43 267 C38.70973532 291.31864318 31.0710194 314.14989806 18.6875 335.5625 C18.26694336 336.2954126 17.84638672 337.0283252 17.41308594 337.78344727 C14.37244236 342.87585255 14.37244236 342.87585255 11 344 C10.72736328 342.09541016 10.72736328 342.09541016 10.44921875 340.15234375 C2.57706743 285.84829184 -18.55406194 235.4132133 -55 194 C-55.65871094 193.23042969 -56.31742188 192.46085938 -56.99609375 191.66796875 C-60.80210537 187.23468573 -64.82441024 183.08459628 -69 179 C-74 174 -74 174 -75.59375 172.30078125 C-81.82334093 165.79402631 -88.83956583 160.42675799 -96 155 C-96.61327148 154.53126465 -97.22654297 154.0625293 -97.85839844 153.57958984 C-106.87215738 146.71117205 -116.09656176 140.51183876 -126 135 C-126.8353125 134.5344873 -127.670625 134.06897461 -128.53125 133.58935547 C-141.81702776 126.26165728 -155.28034348 120.12694795 -169.52490234 114.90917969 C-171.67751423 114.11845897 -173.81861279 113.30466184 -175.95703125 112.4765625 C-184.12258937 109.39698058 -192.38035366 107.33928971 -200.88760376 105.48036194 C-202.85482441 105.03301314 -204.80912741 104.5298711 -206.76171875 104.02246094 C-210.74781031 103.02273148 -214.75354209 102.32563935 -218.8203125 101.74609375 C-219.5498967 101.64045105 -220.2794809 101.53480835 -221.03117371 101.42596436 C-223.39477703 101.08877292 -225.75956358 100.76157043 -228.125 100.4375 C-228.93270844 100.32572418 -229.74041687 100.21394836 -230.57260132 100.0987854 C-246.38968532 97.94000434 -262.03420347 97.09174711 -278 97 C-278 96.34 -278 95.68 -278 95 C-274.55700775 91.74311544 -270.74444818 88.9013626 -267 86 C-266.42733398 85.55382324 -265.85466797 85.10764648 -265.26464844 84.64794922 C-255.99219488 77.47776268 -246.40350853 71.39353612 -236 66 C-234.845 65.39542969 -233.69 64.79085937 -232.5 64.16796875 C-186.8650685 41.60516222 -133.01946503 38.96313285 -84.90356445 54.85498047 C-75.20006806 58.19198005 -65.97946113 62.02005622 -57 67 C-56.78601563 66.35546875 -56.57203125 65.7109375 -56.3515625 65.046875 C-54.47086569 60.80715387 -51.93640686 57.10717739 -49.375 53.25 C-48.20087383 51.4641653 -47.02774436 49.67767501 -45.85546875 47.890625 C-45.2320459 46.94123047 -44.60862305 45.99183594 -43.96630859 45.01367188 C-39.83756165 38.68572895 -35.790934 32.30472035 -31.73388672 25.93066406 C-29.83107096 22.94823997 -27.91662924 19.97356183 -26 17 C-25.31244629 15.91847656 -24.62489258 14.83695313 -23.91650391 13.72265625 C-23.22862793 12.65917969 -22.54075195 11.59570312 -21.83203125 10.5 C-20.90934448 9.06140625 -20.90934448 9.06140625 -19.96801758 7.59375 C-14.35643173 0.19795691 -8.87186035 -0.89095062 0 0 Z " fill="#FF8F70" transform="translate(380,23)"/>
<path d="M0 0 C4.873387 2.30378294 7.48191114 5.25437099 10 10 C10.1015625 12.69140625 10.1015625 12.69140625 10 15 C10.75394043 14.98428955 11.50788086 14.9685791 12.28466797 14.95239258 C47.57205188 14.31583374 77.09710979 20.16505403 103.28808594 45.28076172 C122.80428262 64.8804561 132.50195201 91.07440985 132.49975586 118.48461914 C132.26722415 129.0824021 129.45668438 135.92455828 121.8125 143.5 C110.71605309 152.30379259 98.24235361 152.07012259 84.73779297 150.78466797 C57.66007814 147.58727704 32.42503797 133.12198526 15.44140625 111.85546875 C1.18944344 93.26630451 -4.73194782 72.01812573 -7 49 C-7.72533936 50.11072876 -7.72533936 50.11072876 -8.46533203 51.24389648 C-10.28774744 54.03415695 -12.11054708 56.82416564 -13.93359375 59.61401367 C-14.71727259 60.81345983 -15.50080536 62.01300143 -16.28417969 63.21264648 C-20.82341551 70.16371412 -25.37611027 77.10478523 -30 84 C-33.08109301 82.83790859 -35.80908264 81.62201981 -38.5234375 79.7578125 C-39.1525 79.33113281 -39.7815625 78.90445313 -40.4296875 78.46484375 C-41.07164062 78.02269531 -41.71359375 77.58054687 -42.375 77.125 C-47.14668215 73.8565917 -51.94211516 70.80993602 -57 68 C-56.36717611 63.78117407 -54.00551673 60.5167312 -51.75 57 C-51.0861731 55.95211304 -51.0861731 55.95211304 -50.40893555 54.88305664 C-45.83514923 47.68687132 -41.18792029 40.53741232 -36.51953125 33.40234375 C-33.99162675 29.53533309 -31.49523768 25.64956351 -29.01171875 21.75390625 C-28.34358154 20.71242432 -27.67544434 19.67094238 -26.98706055 18.59790039 C-25.6888894 16.57400388 -24.39709244 14.54600076 -23.11254883 12.51342773 C-16.76602312 2.6600872 -11.91435606 -1.1964912 0 0 Z " fill="#00CD8D" transform="translate(380,23)"/>
<path d="M0 0 C1.07507813 0.75796875 2.15015625 1.5159375 3.2578125 2.296875 C11.73842858 8.3639476 11.73842858 8.3639476 14 11 C14 11.66 14 12.32 14 13 C13.37359619 13.05945801 12.74719238 13.11891602 12.10180664 13.18017578 C-24.97597229 16.83246312 -59.43981851 27.14782721 -90 49 C-93 51 -93 51 -95.39746094 50.76171875 C-98.00388892 49.99886178 -100.22501747 49.04881093 -102.640625 47.8125 C-103.53386475 47.36535645 -104.42710449 46.91821289 -105.34741211 46.45751953 C-106.30526611 45.97653809 -107.26312012 45.49555664 -108.25 45 C-120.50647364 38.99213663 -133.06752285 34.32597268 -146 30 C-146.80115234 29.72929687 -147.60230469 29.45859375 -148.42773438 29.1796875 C-163.17219539 24.23450199 -178.12513922 21.46625704 -193.5 19.375 C-194.29272308 19.26572174 -195.08544617 19.15644348 -195.90219116 19.04385376 C-211.60145568 16.90826965 -227.16005871 16.09102389 -243 16 C-243 15.34 -243 14.68 -243 14 C-239.55700775 10.74311544 -235.74444818 7.9013626 -232 5 C-231.42733398 4.55382324 -230.85466797 4.10764648 -230.26464844 3.64794922 C-220.99219488 -3.52223732 -211.40350853 -9.60646388 -201 -15 C-199.845 -15.60457031 -198.69 -16.20914063 -197.5 -16.83203125 C-134.04691784 -48.20448147 -57.24838719 -40.79926702 0 0 Z " fill="#FE6F4D" transform="translate(345,104)"/>
<path d="M0 0 C3.125 0.5 3.125 0.5 6.0625 2.5625 C8.125 5.5 8.125 5.5 8.3125 8.625 C7.11884925 14.00836487 3.90137317 18.80478787 1.125 23.5 C2.40375 23.809375 3.6825 24.11875 5 24.4375 C15.06445423 27.8029011 21.54290047 36.33580094 26.125 45.5 C26.77942422 53.07415574 27.09895567 60.34454752 22.125 66.5 C15.55232238 72.70664473 8.26488394 73.97912276 -0.5625 73.80859375 C-9.36536294 72.98851572 -16.62020275 68.61128374 -22.875 62.5 C-28.92224938 54.95065014 -31.84898766 48.224658 -30.875 38.5 C-29.23365624 33.23042267 -27.12261223 30.00889706 -22.875 26.5 C-21.29926737 25.69331094 -19.7153384 24.90249877 -18.125 24.125 C-15.7657712 22.94347734 -15.7657712 22.94347734 -13.875 21.5 C-13.17391234 18.26742779 -13.17391234 18.26742779 -12.875 14.5 C-5.68401892 0.98852503 -5.68401892 0.98852503 0 0 Z " fill="#FE8E9D" transform="translate(274.875,235.5)"/>
<path d="M0 0 C1.9609375 1.54296875 1.9609375 1.54296875 3.375 3.1875 C3.625 6.8125 3.625 6.8125 3.375 10.1875 C5.65792256 13.20421909 8.02311575 14.57493384 11.375 16.1875 C12.17934783 30.84450483 12.17934783 30.84450483 7.375 37.1875 C1.78140343 42.78109657 -3.73000952 44.38257351 -11.4375 44.625 C-22.00282495 44.35639004 -30.07055364 40.56861298 -37.625 33.1875 C-43.93202216 25.31385135 -46.72098566 18.32180898 -45.625 8.1875 C-43.99612136 1.80317031 -40.28625587 -1.26338887 -34.84375 -4.68359375 C-23.40142952 -10.50547864 -10.09185037 -6.58087446 0 0 Z " fill="#FE8E9D" transform="translate(147.625,182.8125)"/>
<path d="M0 0 C2.61592669 1.1873104 4.9749056 2.67729461 7.375 4.25 C8.06053955 4.68965088 8.7460791 5.12930176 9.45239258 5.58227539 C28.92771604 18.30008782 49.37764489 34.10433006 64.34765625 52.0390625 C66.22275626 54.26435849 68.20365874 56.37117212 70.1875 58.5 C78.33476107 67.54942797 85.49307747 77.50601651 92.25 87.625 C92.97703125 88.71039063 93.7040625 89.79578125 94.453125 90.9140625 C96.1576647 94.31453311 96.48898029 96.25115114 96 100 C93.9375 102.9375 93.9375 102.9375 91 105 C87.6875 105.5 87.6875 105.5 84 104 C80.90367245 100.6262931 78.50272619 96.82449265 76 93 C69.25601418 83.11732203 61.96786801 73.92259024 54 65 C53.50209961 64.43893555 53.00419922 63.87787109 52.49121094 63.29980469 C35.08770121 43.76479019 14.61517418 27.55987598 -7.9296875 14.2734375 C-10.46166232 12.71603412 -11.20372747 11.86658112 -12 9 C-11.87003769 5.29607411 -11.74379893 2.91544484 -9.375 0 C-5.90107746 -1.46270423 -3.6652768 -0.79614619 0 0 Z " fill="#009D6B" transform="translate(399,52)"/>
<path d="M0 0 C3.5 0.5625 3.5 0.5625 5.625 1.9375 C7.93554212 5.17225897 9.48584259 8.57847674 11.05859375 12.22265625 C12.89141019 15.1978786 14.27823113 16.20478655 17.5 17.5625 C21.34101049 17.68775034 25.07309717 17.43267559 28.90625 17.1796875 C32.5 17.5625 32.5 17.5625 35.45703125 19.84765625 C37.5 22.5625 37.5 22.5625 37.6875 26.125 C36.15429763 30.56321737 34.60058843 31.37364066 30.5 33.5625 C27.73659497 33.9816357 25.49468913 34.18411739 22.75 34.125 C22.04770264 34.11694336 21.34540527 34.10888672 20.62182617 34.10058594 C14.37057732 33.86222432 9.6828604 32.09626846 4.5 28.5625 C3.571875 27.964375 2.64375 27.36625 1.6875 26.75 C-3.20916443 21.85333557 -7.01069186 15.47696512 -7.875 8.5625 C-7.21320538 3.26814301 -5.30917419 0.85326014 0 0 Z " fill="#353F40" transform="translate(198.5,205.4375)"/>
<path d="M0 0 C3.125 0.5 3.125 0.5 6.0625 2.5625 C8.125 5.5 8.125 5.5 8.375 8.5625 C6.9002326 15.09774378 2.67538855 22.79974096 -2.875 26.5 C-6.92980401 27.11703539 -8.41869977 26.82038101 -11.8125 24.4375 C-13.875 21.5 -13.875 21.5 -14.125 18.375 C-12.6617242 11.86198812 -6.9984301 1.21711828 0 0 Z " fill="#374041" transform="translate(274.875,235.5)"/>
<path d="M0 0 C3.625 0.375 3.625 0.375 6.0625 1.9375 C7.66097586 4.43112234 8.37708723 6.18659506 8.21484375 9.171875 C6.649817 15.01740536 3.04879054 21.13005226 -1.38671875 25.23828125 C-3.375 26.375 -3.375 26.375 -6.9375 26.3125 C-10.375 25.375 -10.375 25.375 -12.3125 23.6875 C-13.71537545 20.63418284 -13.6909194 18.73014397 -13.375 15.375 C-12.16486716 12.95473432 -10.98248037 10.85641508 -9.5 8.625 C-9.13519531 8.04878906 -8.77039063 7.47257813 -8.39453125 6.87890625 C-4.29057228 0.47673025 -4.29057228 0.47673025 0 0 Z " fill="#353F40" transform="translate(163.375,171.625)"/>
</svg>
